<svg width="1000" height="1000" viewBox="0 0 1000 1000" fill="none" xmlns="http://www.w3.org/2000/svg">
<path d="M710.467 245.847C704.333 249.047 693.933 255.313 687.4 259.713L675.4 267.713L662.2 265.98C617.933 259.847 560.467 257.847 520.333 261.18C443.4 267.58 415.133 272.513 369.533 287.847C311.4 307.447 285.4 320.38 257 344.247C236.867 361.047 225.267 375.58 217 394.113C205.267 420.38 203.8 454.38 213.267 480.513C217.8 493.047 221 497.713 231.533 507.713C256.333 530.78 296.333 537.713 337.4 525.847C343.533 523.98 350.733 521.447 353.533 520.113C367.4 513.047 384.333 494.38 393 476.913C398.6 465.58 401.933 445.313 399.267 439.18C398.333 437.313 397.133 436.113 396.467 436.647C395.667 437.047 391.933 443.58 387.933 451.18C377.133 471.847 369.667 482.247 357.267 494.247C341.533 509.313 327.933 515.447 307 516.78C287.267 518.113 272.333 513.18 259.533 501.047C241.8 484.38 234.6 461.847 239.533 438.647C242.333 425.58 253.8 402.647 265 387.713C286.333 359.447 336.067 328.113 389.533 309.18C402.2 304.78 435.933 296.113 456.733 291.98C498.867 283.713 564.867 279.713 614.333 282.513C630.467 283.313 645.933 284.513 648.733 285.047L653.933 285.98L644.733 296.647C627.533 316.78 591.533 362.513 576.867 382.647C548.467 421.847 534.6 445.713 493 526.647C459.933 591.18 442.6 619.713 418.733 649.58C393.8 680.513 363 705.98 331.667 721.713C295.667 739.713 259.4 744.38 233.133 734.647C223.533 731.047 215.133 723.313 209.533 713.047C205.4 705.313 205 703.713 205 693.313C205 684.113 205.533 680.78 208.067 675.713C212.333 666.913 221.933 657.98 232.2 652.913C240.6 648.78 241.533 648.647 256.333 648.78C268.333 648.913 274.6 649.713 285 652.513C299.4 656.247 303.667 656.78 305 654.647C308.467 648.913 282.467 638.38 259.4 635.98C244.6 634.38 225.4 636.113 214.067 640.113C195.133 646.647 175.4 661.98 168.733 675.713C165.4 682.513 165 684.647 165 697.313C165 710.513 165.267 711.847 169.4 720.247C174.733 731.18 184.733 740.647 198.2 747.18C237.267 766.513 316.2 762.78 359 739.58C387 724.513 415.933 702.113 436.867 679.58C461.267 653.18 489.533 618.113 507 592.513L511.533 585.713L539 584.913C566.733 584.113 595.667 581.047 622.333 575.98C693.8 562.513 754.067 530.38 793.533 484.647C813.933 461.047 820.867 450.647 829.667 429.98C834.067 419.713 834.2 418.647 834.2 403.313C834.067 384.247 830.733 368.513 823.4 353.313C810.867 327.047 767.8 297.047 720.067 281.18C707.4 277.047 703.4 275.18 703.933 273.713C704.333 272.78 712.6 265.847 722.467 258.513C740.733 244.78 742.467 242.38 734.733 240.78C726.2 239.047 721.667 239.98 710.467 245.847ZM711.933 297.98C752.6 311.58 781.267 335.713 791.133 364.913C795.533 377.98 795.667 400.513 791.267 414.513C777 459.98 733.133 505.447 678.333 531.98C642.467 549.313 599.4 561.713 555.933 567.313C540.867 569.18 524.333 569.98 524.333 568.78C524.333 568.113 540.6 539.98 581 471.313C594.333 448.513 610.067 420.913 615.933 409.98C631 381.847 648.2 353.313 670.067 320.247L688.867 291.847L693.667 292.647C696.2 293.047 704.467 295.58 711.933 297.98Z" fill="#F6F5E8"/>
</svg>
