<svg width="2546" height="790" viewBox="0 0 2546 790" fill="none" xmlns="http://www.w3.org/2000/svg">
<path d="M545.467 5.86669C539.333 9.06669 528.933 15.3334 522.4 19.7334L510.4 27.7334L497.2 26C452.933 19.8667 395.467 17.8667 355.333 21.2C278.4 27.6 250.133 32.5334 204.533 47.8667C146.4 67.4667 120.4 80.4 91.9999 104.267C71.8666 121.067 60.2666 135.6 51.9999 154.133C40.2666 180.4 38.7999 214.4 48.2666 240.533C52.7999 253.067 55.9999 257.733 66.5333 267.733C91.3333 290.8 131.333 297.733 172.4 285.867C178.533 284 185.733 281.467 188.533 280.133C202.4 273.067 219.333 254.4 228 236.933C233.6 225.6 236.933 205.333 234.267 199.2C233.333 197.333 232.133 196.133 231.467 196.667C230.667 197.067 226.933 203.6 222.933 211.2C212.133 231.867 204.667 242.267 192.267 254.267C176.533 269.333 162.933 275.467 142 276.8C122.267 278.133 107.333 273.2 94.5333 261.067C76.7999 244.4 69.5999 221.867 74.5333 198.667C77.3333 185.6 88.7999 162.667 99.9999 147.733C121.333 119.467 171.067 88.1334 224.533 69.2C237.2 64.8 270.933 56.1334 291.733 52C333.867 43.7334 399.867 39.7334 449.333 42.5334C465.467 43.3334 480.933 44.5334 483.733 45.0667L488.933 46L479.733 56.6667C462.533 76.8 426.533 122.533 411.867 142.667C383.467 181.867 369.6 205.733 328 286.667C294.933 351.2 277.6 379.733 253.733 409.6C228.8 440.533 198 466 166.667 481.733C130.667 499.733 94.3999 504.4 68.1333 494.667C58.5333 491.067 50.1333 483.333 44.5333 473.067C40.3999 465.333 39.9999 463.733 39.9999 453.333C39.9999 444.133 40.5333 440.8 43.0666 435.733C47.3333 426.933 56.9333 418 67.1999 412.933C75.5999 408.8 76.5333 408.667 91.3333 408.8C103.333 408.933 109.6 409.733 120 412.533C134.4 416.267 138.667 416.8 140 414.667C143.467 408.933 117.467 398.4 94.3999 396C79.5999 394.4 60.3999 396.133 49.0666 400.133C30.1333 406.667 10.3999 422 3.73327 435.733C0.399939 442.533 -6.10352e-05 444.667 -6.10352e-05 457.333C-6.10352e-05 470.533 0.266606 471.867 4.39994 480.267C9.73327 491.2 19.7333 500.667 33.1999 507.2C72.2666 526.533 151.2 522.8 194 499.6C222 484.533 250.933 462.133 271.867 439.6C296.267 413.2 324.533 378.133 342 352.533L346.533 345.733L374 344.933C401.733 344.133 430.667 341.067 457.333 336C528.8 322.533 589.067 290.4 628.533 244.667C648.933 221.067 655.867 210.667 664.667 190C669.067 179.733 669.2 178.667 669.2 163.333C669.067 144.267 665.733 128.533 658.4 113.333C645.867 87.0667 602.8 57.0667 555.067 41.2C542.4 37.0667 538.4 35.2 538.933 33.7334C539.333 32.8 547.6 25.8667 557.467 18.5334C575.733 4.80002 577.467 2.40002 569.733 0.80002C561.2 -0.933314 556.667 1.96927e-05 545.467 5.86669ZM546.933 58C587.6 71.6 616.267 95.7334 626.133 124.933C630.533 138 630.667 160.533 626.267 174.533C612 220 568.133 265.467 513.333 292C477.467 309.333 434.4 321.733 390.933 327.333C375.867 329.2 359.333 330 359.333 328.8C359.333 328.133 375.6 300 416 231.333C429.333 208.533 445.067 180.933 450.933 170C466 141.867 483.2 113.333 505.067 80.2667L523.867 51.8667L528.667 52.6667C531.2 53.0667 539.467 55.6 546.933 58Z" fill="#F6F5E8"/>
<path d="M1970.8 12.4C1963.73 26.8 1959.87 62.6667 1962 94.9333C1963.2 112.8 1967.33 141.2 1969.87 150.4C1970.93 154 1970.53 155.2 1964.93 161.6C1950.93 177.867 1932.13 212.4 1922 240.4C1911.87 268.4 1902.53 306.533 1899.33 333.2C1897.33 350.933 1897.6 388.667 1900 404.267C1905.2 438.667 1913.73 460.533 1930.93 483.467C1959.47 521.2 2002.4 546.533 2053.33 555.333C2112.93 565.6 2179.2 551.2 2232.67 516.267C2259.2 498.933 2287.73 472.133 2304.4 448.667L2312.27 437.467L2313.07 449.067C2313.47 455.467 2314.8 463.733 2315.87 467.467C2321.6 486.133 2336.67 496 2359.73 496C2375.73 496 2386.93 492.267 2402.93 481.733L2410 477.067L2415.6 481.867C2430.4 494.533 2452.4 496.267 2472.53 486.533C2491.47 477.2 2515.07 447.067 2534.93 407.067C2546.13 384.267 2548 376.933 2543.47 372.8C2540.93 370.533 2540.53 370.4 2537.47 372.4C2535.6 373.733 2533.07 377.733 2531.33 382.267C2522.4 406.267 2498.27 444.933 2482 461.6C2462 481.867 2444.67 485.2 2429.2 471.6L2423.33 466.4L2433.47 456.4C2446 443.867 2459.47 423.6 2471.33 399.333C2481.6 378.667 2483.73 371.733 2486 352.4C2489.07 327.733 2484.93 304.667 2475.73 294.533C2467.6 285.467 2459.6 282.267 2444 281.6C2432.27 281.067 2429.33 281.467 2420.27 284.533C2408.93 288.4 2392.67 297.867 2379.07 308.8C2357.2 326.4 2330.53 366.267 2316 403.333C2308.67 422.267 2293.2 445.867 2279.87 458.933C2259.47 478.8 2236.93 494.4 2209.33 508.133C2178.67 523.2 2150.67 530.933 2117.07 533.333C2064.67 537.067 2004 521.6 1979.6 498.133C1937.2 457.6 1929.47 384.8 1957.33 288C1964.67 262.667 1984.4 211.067 1988.67 206.267C1989.2 205.6 1991.73 208.667 1994.13 212.8C2006.53 234.667 2030.93 261.333 2049.87 273.867C2087.2 298.667 2141.33 311.067 2197.87 307.867C2259.33 304.4 2303.47 285.6 2340.13 247.733C2358.8 228.4 2367.73 213.867 2376 188.933C2390.53 145.067 2380.67 99.4667 2349.47 65.7333C2315.33 28.9333 2235.07 10.9333 2160 23.3333C2115.6 30.5333 2071.47 50.9333 2033.33 81.7333C2020.8 91.8667 2000.13 112.267 1993.07 121.467C1990.4 125.067 1987.73 127.6 1987.2 126.933C1986.8 126.4 1985.2 117.867 1983.87 108C1981.87 94 1981.33 81.0667 1981.2 50C1981.2 28 1981.07 8.93336 1980.93 7.60003C1980.8 6.13336 1979.6 5.33336 1977.47 5.33336C1974.8 5.33336 1973.47 6.80003 1970.8 12.4ZM2248.67 46.9333C2297.2 53.7333 2337.6 84.5333 2348.13 122.667C2351.87 136 2351.6 166.267 2347.6 181.867C2339.47 214 2321.47 238.533 2290 260.533C2256.67 283.6 2230.67 291.2 2184.67 291.067C2158.53 291.067 2144.93 289.467 2117.07 283.2C2091.2 277.467 2061.2 260.8 2041.87 241.467C2027.87 227.467 2015.07 207.6 2007.47 188.267L2004.93 181.867L2011.6 171.867C2042.13 126.8 2086.13 87.7333 2130.67 66C2169.07 47.2 2207.07 41.0667 2248.67 46.9333ZM2459.33 305.333C2466.8 313.333 2470.53 333.467 2467.33 348.667C2463.2 369.067 2450.93 401.067 2440.4 419.2L2434.93 428.533L2433.2 422.533C2430.4 413.2 2426.13 410 2416.27 410C2401.87 410 2394.27 417.6 2392.93 433.067C2392.27 441.2 2394.53 454.267 2398 462.267L2400.53 467.867L2394.27 471.733C2353.87 496.533 2337.73 471.333 2357.47 414.4C2363.07 398.267 2375.33 372 2382.67 360.667C2394.27 342.4 2416.13 318.8 2430 309.333C2440 302.533 2442.53 301.467 2449.73 301.467C2454.53 301.333 2456.27 302 2459.33 305.333Z" fill="#F6F5E8"/>
<path d="M1650 68.1333C1626.8 71.0667 1601.73 78.8 1580 89.6C1557.73 100.8 1541.73 112.933 1526.67 130.267C1515.87 142.533 1509.07 154.533 1504.4 169.333C1501.73 178 1501.33 181.867 1501.47 198.667C1501.6 215.6 1502 219.467 1505.2 229.733C1507.07 236.267 1510 244 1511.47 246.933C1512.93 249.867 1514 252.4 1513.73 252.533C1513.47 252.8 1504.93 254.533 1494.8 256.533C1446.93 265.867 1413.47 282.133 1385.07 309.733C1364 330.267 1347.87 356.133 1340.53 381.733C1336.67 395.333 1335.6 421.333 1338.53 434C1348.13 474.533 1391.2 509.467 1445.47 520.533C1480.4 527.733 1527.87 524.8 1563.2 513.333C1607.2 499.067 1647.73 464.533 1665.33 426.133C1672.13 411.467 1674.4 400.533 1673.73 384.667C1672.93 368.933 1669.87 359.333 1662 349.467L1656.93 343.067L1669.73 342.133C1725.2 338.267 1768.27 317.6 1783.33 287.867C1792.53 269.867 1790.93 250.533 1779.6 238.267C1777.73 236.267 1775.33 234.667 1774.4 234.667C1772 234.667 1772.13 244.8 1774.67 252C1777.47 259.867 1777.2 264.933 1773.6 272.667C1765.07 290.933 1731.33 308.933 1687.47 318.8C1675.33 321.467 1671.07 321.733 1602.67 321.867C1512.53 322.133 1508.93 322.667 1479.73 336.933C1453.6 349.6 1440.8 365.2 1439.6 385.6C1438.53 403.733 1446.27 421.333 1463.07 439.067C1476.53 453.067 1500.13 469.333 1507.33 469.333C1509.87 469.333 1512.67 464.933 1512.67 460.8C1512.67 459.867 1508.27 456.267 1502.8 452.8C1488.13 443.6 1473.47 429.333 1470.4 421.6C1466.67 411.733 1467.07 396 1471.47 386.667C1483.2 361.733 1523.87 345.867 1569.2 348.4C1609.73 350.8 1632.8 364.4 1638.13 389.333C1643.07 412.267 1623.87 448.933 1593.6 474.667C1558.27 504.667 1518.13 517.6 1478.67 511.6C1454.93 507.867 1439.47 501.333 1428.13 489.867C1409.87 471.6 1400.67 447.6 1400.67 418.4C1400.67 386.933 1411.2 354.133 1430.8 324.533C1451.07 293.867 1486.93 269.867 1518.4 266C1525.87 265.067 1526 265.067 1532 270.4C1539.2 276.667 1555.6 285.467 1565.87 288.533C1574.27 291.067 1590.8 291.333 1600.8 289.2C1605.2 288.267 1609.33 286.267 1612.27 283.467C1616.27 279.867 1616.93 278.4 1616.93 272.933C1617.07 265.733 1614.4 261.2 1607.33 256.4C1600.13 251.467 1594.67 250.667 1566.53 250.667H1539.6L1537.33 244.933C1529.47 225.733 1536.8 195.6 1556.8 165.733C1566.27 151.467 1590.4 127.867 1606 117.467C1635.07 98.1333 1665.6 86.6667 1694 84.5333C1720.4 82.5333 1738.67 92.1333 1742.53 110.133L1743.47 114.4L1737.2 111.2C1726.93 106 1708.67 107.6 1701.6 114.4C1695.2 120.4 1693.6 124.933 1693.6 136.133C1693.87 160.8 1707.87 171.467 1730.93 164.667C1739.47 162.133 1749.6 152.8 1754.8 142.667C1758.4 135.867 1758.67 134.267 1758.67 120.667C1758.53 108.4 1758 104.667 1755.47 98.1333C1746.67 76 1723.73 66.5333 1680 66.8C1668.27 66.9333 1654.8 67.4667 1650 68.1333ZM1598.53 265.067C1606.27 267.733 1607.07 269.067 1603.47 273.467C1601.07 276.533 1600.27 276.667 1584.4 276.667C1570.13 276.667 1567.07 276.267 1561.2 273.6C1557.33 271.867 1552.67 268.667 1550.53 266.533L1546.8 262.667H1569.47C1587.07 262.8 1593.47 263.333 1598.53 265.067Z" fill="#F6F5E8"/>
<path d="M1224 112.933C1222.53 113.333 1217.47 115.733 1212.67 118.4C1186.67 132.667 1157.87 177.467 1123.2 257.467C1103.87 302.133 1098 317.467 1086.13 353.2C1080.13 371.067 1072.67 390.667 1068.93 398.267C1051.6 432.667 1023.6 466.267 1004.13 476C987.333 484.4 968.533 482.933 959.333 472.533C952.133 464.267 950.8 459.6 950.933 442C950.933 418.4 955.6 402.667 962.533 402.667C967.867 402.667 991.333 396.267 1004 391.333C1022.53 384.133 1035.73 375.333 1049.47 360.933C1068 341.467 1076.93 324.267 1076.93 308C1076.93 283.867 1056.93 272.667 1025.33 279.333C1006.67 283.333 986.667 296.133 968.133 316.133C951.2 334.4 927.6 373.333 920.533 394.4C915.467 409.733 898.533 435.733 882 453.867C873.067 463.6 858.667 473.733 850.933 475.867C845.6 477.467 844.4 477.333 838.267 474.667C832.8 472.267 831.2 470.8 829.467 466.533C825.067 455.733 827.733 430 836.667 395.333L840.667 379.733L857.867 361.6C881.333 336.8 897.6 317.067 910.133 298C916 289.2 921.333 281.2 922.133 280.267C923.067 279.2 928.4 278.667 940.533 278.667C956.533 278.667 957.733 278.533 960.4 275.6C963.6 272.133 964.267 266.8 961.733 264.267C960.667 263.2 955.467 262.667 947.333 262.667C940.267 262.667 934.133 262.267 933.733 261.867C933.333 261.467 937.6 251.467 943.333 239.6C963.733 196.933 971.333 174.667 971.333 156.8C971.333 148.133 970.667 144.667 968.4 140C963.733 131.2 959.867 128.933 949.2 129.067C936.133 129.333 925.467 134.667 913.467 147.2C899.067 161.867 868.667 215.867 850 259.6C848.8 262.533 848.133 262.667 828.933 262.667C807.6 262.667 806 263.2 806 269.733C806 278 807.333 278.667 823.333 278.667C831.333 278.667 838.133 279.067 838.4 279.6C838.8 280.267 835.467 290 831.2 301.333C818.933 333.467 805.067 373.2 802 384.8C800.133 392.4 796.4 400.133 789.2 412.667C763.333 456.8 743.333 478.667 728.8 478.667C723.6 478.667 722 475.6 722 465.333C722 438 740.8 390.267 767.2 350.4C773.867 340.267 779.333 331.867 779.333 331.467C779.333 330 759.067 327.733 749.2 328.267C732 329.2 734.267 326.533 705.733 377.867C678.533 426.8 667.6 442.533 648.4 460.8C630.667 477.867 611.333 482.133 605.333 470.533C596.8 454.133 617.2 400.267 648.667 355.733C676.933 315.733 715.2 289.6 738.133 294.533C750.133 297.2 755.467 301.867 756.933 311.333C757.2 313.333 758.533 314.133 762.133 314.4C768.8 314.933 771.333 312.133 771.333 304.133C771.333 298.267 770.8 297.2 765.467 292.267C752.667 280.533 740 276.667 716.8 277.733C679.467 279.333 647.6 296 622 327.2C598.667 355.867 585.467 381.733 576.533 416C572.667 430.933 572.267 455.467 575.733 467.333C578.933 477.733 585.467 487.733 592.667 492.667C597.467 496 600 496.667 607.867 497.067C616.8 497.467 618 497.2 628.267 492.133C645.2 483.467 670.933 457.467 687.467 432C689.467 428.933 689.6 429.067 688.533 436C687.067 446.933 687.2 464.267 688.8 472.133C690.533 480.4 698.933 490.267 707.867 494.667C715.867 498.533 728.533 498.267 737.333 494.133C749.467 488.533 765.2 471.733 783.067 445.467L790.667 434.4L791.6 445.467C793.733 471.467 801.2 484.8 817.867 492.533C822.933 494.8 826.533 495.333 838.8 495.333C853.067 495.333 853.733 495.2 863.467 490.4C875.867 484.133 885.2 475.2 900.4 454.8L912.133 438.933L914.267 450.133C919.467 477.733 934.933 493.6 960.133 497.333C978.133 500.133 1002.93 494.533 1021.2 483.733C1032.8 476.933 1051.07 459.467 1058.4 448.267L1064 439.867L1064.93 452.267C1066.4 473.2 1073.6 486.933 1086.53 493.733C1097.87 499.467 1126.67 497.733 1141.33 490.267C1155.6 483.067 1175.33 463.733 1188.93 443.333C1197.47 430.533 1212.4 402 1217.47 388.267C1221.47 377.867 1221.73 370.667 1218.13 370.667C1213.47 370.667 1208.93 376 1201.87 389.6C1180.27 432.133 1165.73 455.2 1153.47 467.067C1144.67 475.467 1131.73 481.867 1123.47 481.867C1112.4 481.867 1103.87 474.533 1100.53 462.133C1098.53 455.067 1098.53 436.133 1100.53 426C1102.27 417.2 1112 386.8 1114.8 381.2C1115.73 379.2 1123.33 370.8 1131.6 362.533C1155.33 338.533 1179.33 306 1204.53 263.6C1239.33 204.8 1254.27 168.933 1254.53 142.667C1254.67 129.6 1252.27 123.333 1244.53 117.067C1239.73 113.2 1230 111.2 1224 112.933ZM1237.33 151.333C1237.2 159.867 1236.27 164.667 1232.67 175.333C1223.73 201.467 1194.27 255.467 1166.67 296.667C1146.67 326.533 1124.67 354.133 1123.73 351.067C1123.2 349.6 1143.6 300.533 1158.13 268.4C1191.47 194.4 1225.2 138.267 1235.2 140.267C1236.93 140.667 1237.33 142.8 1237.33 151.333ZM954 155.333C956.533 158.267 954.933 177.333 951.467 188C948.133 198 918.933 257.467 915.867 260.667C914.267 262.133 910.8 262.667 901.2 262.667C890.4 262.667 888.667 262.4 888.667 260.4C888.667 257.333 900 229.333 906.8 215.733C923.467 182.667 944 153.333 950.667 153.333C951.6 153.333 953.067 154.267 954 155.333ZM902.533 279.867C904.267 282.533 857.733 347.467 851.333 351.333C848.267 353.2 873.6 288.933 878.8 281.6C880.533 278.933 882 278.667 891.333 278.667C897.067 278.667 902.133 279.2 902.533 279.867ZM1054.8 295.067C1057.87 297.733 1058.4 299.067 1058.27 305.2C1058 313.6 1053.07 328.267 1047.07 338.267C1033.2 361.2 1007.07 379.2 975.6 387.333C970.933 388.533 966.533 389.333 965.733 389.067C965.067 388.8 966.933 383.867 970 378C986.8 346 1021.73 305.6 1040.93 296.133C1045.47 293.867 1049.6 292 1050.13 292C1050.67 292 1052.8 293.333 1054.8 295.067Z" fill="#F6F5E8"/>
<path d="M736.8 672.8C732 676.8 731.333 682.8 734.8 687.867C736.667 690.4 737.867 690.8 741.867 690.267C744.533 689.867 747.733 689.2 749.067 688.667C750.667 688 751.333 688.4 751.333 689.867C751.333 694.533 747.333 699.733 742 701.867C738.267 703.333 736.667 704.8 736.667 706.667C736.667 708.667 737.6 709.333 740 709.333C747.333 709.333 757.067 701.2 759.333 693.2C761.867 684.4 761.067 679.2 756.133 674.133C750.4 668 743.067 667.467 736.8 672.8Z" fill="#F6F5E8"/>
<path d="M832.533 671.467C816.533 676.4 808 691.6 811.333 709.467C812.4 715.467 813.6 717.6 818.533 722.133C821.867 725.2 830.667 731.2 838.267 735.733C856.667 746.533 860.933 750.933 861.733 760.667C862.533 769.867 859.6 777.2 853.733 780.667C850.4 782.533 847.867 782.933 840.8 782.267C827.867 781.2 825.733 779.867 820.267 768.8C817.6 763.6 815.067 757.733 814.667 755.6C814 753.333 812.8 752 811.2 752C808.8 752 808.667 753.2 808.667 770C808.667 787.067 808.8 788 811.333 788C813.067 788 814 787.067 814 785.333C814 783.867 814.267 782.667 814.533 782.667C814.8 782.667 818.533 784.267 822.8 786.267C829.467 789.2 832.533 789.867 842.667 789.867C853.467 790 855.333 789.6 860.933 786.267C874.267 778.533 882.8 760.4 879.467 747.067C877.067 737.867 873.067 733.467 861.2 726.8C844.4 717.467 832.533 709.067 829.867 704.8C827.067 700.267 826.4 688.133 828.667 683.867C832.133 677.467 843.867 675.467 852.4 679.867C858.667 683.067 861.2 685.867 864.667 693.733C866.667 698.133 868.267 700 870 700C872.533 700 872.667 698.933 872.667 685.333C872.667 671.733 872.533 670.667 870.133 670.667C868.667 670.667 867.333 671.333 867.067 672.133C866.667 673.2 864.667 672.933 860.267 671.467C852.533 668.933 840.8 668.8 832.533 671.467Z" fill="#F6F5E8"/>
<path d="M1539.33 671.867C1539.33 674.133 1540.4 674.533 1546.27 674.933L1553.2 675.333L1560.67 695.333C1564.8 706.267 1574.4 732.133 1582 752.533C1592.53 781.067 1596.13 789.2 1596.93 787.2C1597.6 785.867 1606.93 760.133 1617.73 730L1637.33 675.333L1643.73 674.933C1648.93 674.533 1650 674.133 1650 671.867C1650 669.467 1648.93 669.333 1632 669.333C1614.93 669.333 1614 669.467 1614 672C1614 674.267 1614.93 674.667 1619.33 674.667C1622.93 674.667 1624.67 675.2 1624.67 676.4C1624.67 677.867 1612.27 718.133 1603.07 746.533C1602.13 749.733 1601.33 750.533 1600.67 749.2C1598.93 746.133 1575.33 678.133 1575.33 676.267C1575.33 675.2 1578 674.667 1584 674.667C1591.73 674.667 1592.67 674.4 1592.67 672C1592.67 669.467 1591.73 669.333 1566 669.333C1540.4 669.333 1539.33 669.467 1539.33 671.867Z" fill="#F6F5E8"/>
<path d="M1722.93 671.467C1713.2 673.733 1708.4 676.267 1701.33 682.8C1688.4 694.8 1682.8 720.133 1687.87 744.133C1691.73 762.267 1701.6 775.6 1716.93 783.333C1725.87 787.733 1727.07 788 1739.87 788C1751.73 788 1754.27 787.6 1760.27 784.667C1780 774.8 1791.73 755.733 1793.6 730.667C1795.33 704.8 1786 686.133 1766.4 676.267C1752.67 669.333 1738.13 667.733 1722.93 671.467ZM1754.67 678.667C1760.4 682.133 1764.67 688.533 1768.13 698.667C1772 710 1771.73 743.733 1767.73 756.8C1763.87 768.933 1760 774.4 1752.8 778.267C1744.67 782.533 1736.4 782.267 1727.2 777.733C1718.67 773.333 1714.27 766.267 1710.4 751.333C1707.07 737.867 1707.07 708.8 1710.53 698.4C1713.47 689.2 1720 681.333 1727.6 677.467C1735.07 673.6 1747.47 674.267 1754.67 678.667Z" fill="#F6F5E8"/>
<path d="M1876 671.2C1860.13 676.267 1846.93 687.733 1842.13 700.667C1839.33 707.867 1839.2 710.4 1839.73 727.333C1840.67 758.533 1847.73 772.933 1866.4 782.533C1874.93 786.933 1876.4 787.2 1891.2 787.733C1909.73 788.4 1919.33 786.267 1926.67 779.867C1931.2 775.733 1931.33 775.6 1931.33 765.2V754.667H1938C1943.73 754.667 1944.67 754.267 1944.67 752C1944.67 749.467 1943.73 749.333 1922.67 749.333C1901.73 749.333 1900.67 749.467 1900.67 751.867C1900.67 754.133 1901.73 754.533 1907.07 754.933L1913.33 755.333L1913.73 763.333C1914.27 774.667 1913.33 777.2 1907.6 779.6C1894.8 784.933 1877.47 780.8 1870.13 770.533C1857.6 753.333 1855.87 713.333 1866.67 692C1873.47 678.667 1885.87 672.133 1899.6 674.667C1914.53 677.6 1922.4 686.533 1925.33 704.267C1925.87 708.133 1926.8 709.333 1928.67 709.333C1931.2 709.333 1931.33 708.267 1931.33 692.933C1931.33 684 1930.93 675.333 1930.53 673.6C1929.6 670.267 1927.6 669.867 1925.47 672.533C1924.27 674.133 1922.67 674.133 1914.67 672C1903.73 669.067 1884 668.667 1876 671.2Z" fill="#F6F5E8"/>
<path d="M300.667 674C300.667 677.067 301.2 677.333 306.667 677.333H312.667V730V782.667H306.667C301.6 782.667 300.667 783.067 300.667 785.333C300.667 787.867 301.6 788 317.333 788C333.067 788 334 787.867 334 785.333C334 783.067 333.067 782.667 328 782.667H322V741.733C322 719.333 322.267 701.2 322.533 701.467C322.933 701.733 329.867 720.267 338 742.667C346.267 765.067 353.467 784.133 354 785.2C354.933 786.8 358.267 777.6 377.467 721.733C381.067 711.2 384.4 702.667 385.067 702.667C385.6 702.667 385.867 720.533 385.733 742.267L385.333 782L378.4 782.4C372.4 782.8 371.333 783.2 371.333 785.467C371.333 787.867 372.4 788 394.667 788C416.933 788 418 787.867 418 785.467C418 783.2 416.933 782.8 411.733 782.4L405.333 782V730V678L411.733 677.6C417.333 677.2 418 676.933 418 673.867V670.667H401.6H385.333L373.333 710C366.8 731.6 361.067 749.333 360.533 749.333C360.133 749.333 353.2 731.733 345.067 710.267L330.267 671.333L315.467 670.933L300.667 670.533V674Z" fill="#F6F5E8"/>
<path d="M458 674C458 677.067 458.533 677.333 464 677.333H470V730V782.667H464C458.933 782.667 458 783.067 458 785.333C458 788 458.933 788 502.667 788H547.333V772.667C547.333 758.533 547.067 757.333 544.8 757.333C542.933 757.333 542.133 758.667 541.467 763.467C540.533 770.8 536.133 779.2 532.133 781.2C530.267 782.267 522.4 782.667 509.333 782.4L489.333 782L488.933 757.467C488.667 740.533 489.067 732.4 490.133 731.2C492.667 728.133 508.8 728.667 512.933 731.867C516.133 734.4 519.333 742.267 519.333 747.867C519.333 749.733 520.133 750.667 522 750.667C524.533 750.667 524.667 749.733 524.667 726C524.667 702.8 524.533 701.333 522.133 701.333C520.267 701.333 519.467 702.667 518.8 706.8C517.6 714.4 514.533 719.867 510.933 720.667C509.333 721.067 503.733 721.333 498.667 721.067L489.333 720.667V699.333V678L507.2 677.6L525.067 677.2L531.333 683.733C535.733 688.267 538 692.133 539.2 696.4C540.533 701.733 541.2 702.667 544 702.667H547.333V686.667V670.667H502.667H458V674Z" fill="#F6F5E8"/>
<path d="M583.333 674C583.333 676.933 583.867 677.333 588.4 677.333C592.133 677.333 594.4 678.267 596.667 680.533C599.6 683.733 599.6 684.533 599.467 708.267C599.467 721.733 598.933 743.867 598.533 757.6L597.6 782.667H590.533C584.267 782.667 583.333 782.933 583.333 785.333C583.333 787.867 584.267 788 602.667 788C620.933 788 622 787.867 622 785.467C622 783.2 620.933 782.8 615.067 782.4L608 782L607.6 739.6C607.467 716.4 607.733 697.333 608.267 697.333C608.933 697.333 623.067 717.733 640 742.667C660.933 773.867 671.333 788 672.933 788C675.2 788 675.333 784.8 675.6 732.933L676 678L683.067 677.6C689.467 677.2 690 676.933 690 673.867V670.667H672H654V674C654 677.067 654.4 677.333 660.667 677.333H667.333V713.6V749.733L640.933 710.533L614.533 671.333L598.933 670.933L583.333 670.533V674Z" fill="#F6F5E8"/>
<path d="M983.333 673.2C983.333 675.333 984.4 675.867 989.067 676.267L994.667 676.667L995.067 728.933L995.333 781.333H989.333C984.267 781.333 983.333 781.733 983.333 784C983.333 786.533 984.267 786.667 1005.33 786.667C1026.27 786.667 1027.33 786.533 1027.33 784.133C1027.33 782 1026.27 781.467 1021.73 781.067L1016 780.667V754.667V728.667H1038.67H1061.33V754.667V780.667L1055.07 781.067C1049.73 781.467 1048.67 781.867 1048.67 784.133C1048.67 786.533 1049.73 786.667 1070.67 786.667C1091.6 786.667 1092.67 786.533 1092.67 784.133C1092.67 782 1091.6 781.467 1087.07 781.067L1081.33 780.667L1080.93 730.133C1080.8 694 1081.07 679.067 1082.13 677.867C1082.93 676.8 1085.73 676 1088.13 676C1091.73 676 1092.67 675.467 1092.67 673.333C1092.67 670.8 1091.73 670.667 1070.67 670.667C1049.6 670.667 1048.67 670.8 1048.67 673.333C1048.67 675.467 1049.6 676 1053.73 676C1056.53 676 1059.47 676.667 1060.4 677.6C1061.47 678.667 1062 685.2 1062 698C1062 710.8 1061.47 717.333 1060.4 718.4C1058.13 720.667 1019.2 720.667 1016.93 718.4C1015.87 717.333 1015.33 710.8 1015.33 698C1015.33 677.333 1015.73 676 1022.93 676C1026.4 676 1027.33 675.467 1027.33 673.333C1027.33 670.8 1026.4 670.667 1005.33 670.667C984.4 670.667 983.333 670.8 983.333 673.2Z" fill="#F6F5E8"/>
<path d="M1176 672.267C1175.6 673.2 1166.93 698 1156.8 727.333L1138.27 780.667L1132.13 781.067C1127.07 781.467 1126 782 1126 784.133C1126 786.533 1127.07 786.667 1144.67 786.667C1162.4 786.667 1163.33 786.533 1163.33 784C1163.33 781.733 1162.4 781.333 1156.8 781.333C1150.13 781.333 1150.13 781.333 1151.33 777.733C1152 775.6 1154 768.667 1156 762.267L1159.47 750.533L1175.47 750.933L1191.6 751.333L1196.8 765.2C1199.6 772.8 1202 779.6 1202 780.133C1202 780.8 1197.87 781.333 1192.67 781.333C1184.27 781.333 1183.33 781.6 1183.33 784C1183.33 786.533 1184.27 786.667 1210.67 786.667C1236.8 786.667 1238 786.533 1238 784.133C1238 781.867 1236.93 781.467 1231.2 781.067L1224.4 780.667L1204.8 726L1185.2 671.333L1180.93 670.933C1178.27 670.667 1176.4 671.2 1176 672.267ZM1182.13 723.733C1185.6 733.733 1188.13 742.4 1187.73 742.933C1187.47 743.6 1181.87 744 1175.33 744C1168.8 744 1163.2 743.6 1162.93 742.933C1162.27 741.867 1174.27 705.333 1175.33 705.333C1175.73 705.333 1178.8 713.6 1182.13 723.733Z" fill="#F6F5E8"/>
<path d="M1267.33 673.333C1267.33 675.467 1268.27 676 1271.87 676C1274.27 676 1277.07 676.8 1277.87 677.867C1278.93 679.067 1279.2 694 1279.07 730.133L1278.67 780.667L1273.07 781.067C1268.4 781.467 1267.33 782 1267.33 784.133C1267.33 786.533 1268.4 786.667 1289.33 786.667C1310.4 786.667 1311.33 786.533 1311.33 784C1311.33 781.733 1310.4 781.333 1305.6 781.333H1299.73L1298.93 756.267C1297.73 722.933 1297.6 679.067 1298.67 677.333C1299.07 676.667 1302.13 676 1305.47 676C1310.4 676 1311.33 675.6 1311.33 673.333C1311.33 670.8 1310.4 670.667 1289.33 670.667C1268.27 670.667 1267.33 670.8 1267.33 673.333Z" fill="#F6F5E8"/>
<path d="M1351.33 673.333C1351.33 675.467 1352.27 676 1355.87 676C1358.27 676 1361.07 676.8 1361.87 677.867C1362.93 679.067 1363.2 694 1363.07 730.133L1362.67 780.667L1357.07 781.067C1352.4 781.467 1351.33 782 1351.33 784.133C1351.33 786.533 1352.4 786.667 1374.67 786.667C1397.07 786.667 1398 786.533 1398 784C1398 781.733 1397.07 781.333 1391.33 781.333H1384.67V754.667V728H1388.13C1397.73 728 1406 736.4 1406 746.133C1406 757.333 1410 775.067 1413.47 779.6C1419.87 788 1431.6 791.467 1441.87 787.867C1446.4 786.267 1449.2 781.6 1447.87 778C1446.67 774.933 1439.2 775.333 1438.4 778.667C1437.47 782 1435.07 782.133 1432 778.667C1430.4 776.933 1429.07 771.6 1427.87 761.867C1426.8 754.133 1424.93 745.2 1423.47 742.133C1420.93 736.4 1414.67 729.333 1412.13 729.333C1411.33 729.2 1408.93 728.4 1406.67 727.467L1402.67 725.733L1409.73 723.467C1417.6 720.8 1425.07 715.067 1428.13 709.2C1430.27 704.8 1430.67 691.2 1428.53 685.733C1427.87 683.733 1425.6 680.267 1423.6 678.267C1416.67 670.933 1415.33 670.667 1382 670.667C1352.27 670.667 1351.33 670.8 1351.33 673.333ZM1403.07 679.467C1412.53 686 1413.33 707.867 1404.4 716.267C1400.93 719.467 1399.33 720 1392.53 720H1384.67V698.667V677.333H1392.4C1397.2 677.333 1401.2 678.133 1403.07 679.467Z" fill="#F6F5E8"/>
<path d="M1978 673.333C1978 675.333 1978.93 676 1981.73 676C1983.73 676 1986.13 676.667 1987.07 677.6C1988.27 678.8 1988.67 690.667 1988.67 722.933C1988.67 771.733 1988.53 770.533 1997.87 779.067C2004.8 785.333 2014.13 788 2028.67 788C2048.13 788 2061.47 782 2067.6 770.4C2070.53 764.8 2070.67 763.2 2071.07 722C2071.33 695.467 2072.13 678.667 2072.93 677.6C2073.73 676.8 2076.4 676 2078.8 676C2082.4 676 2083.33 675.467 2083.33 673.333C2083.33 670.8 2082.4 670.667 2066.67 670.667C2050.93 670.667 2050 670.8 2050 673.333C2050 675.467 2050.93 676 2054.4 676C2056.8 676 2059.47 676.667 2060.4 677.6C2061.6 678.8 2062 690 2062 720C2062 765.6 2061.6 767.333 2052.27 775.6C2043.33 783.333 2032.27 783.867 2020.13 776.933C2010 771.2 2009.87 770.4 2010.27 720.667L2010.67 676.667L2015.73 676.267C2019.6 675.867 2020.67 675.333 2020.67 673.2C2020.67 670.8 2019.6 670.667 1999.33 670.667C1978.93 670.667 1978 670.8 1978 673.333Z" fill="#F6F5E8"/>
<path d="M2122 673.2C2122 675.333 2123.07 675.867 2127.73 676.267L2133.33 676.667V729.333V782L2127.73 782.4C2123.87 782.667 2122 783.467 2122 784.8C2122 786.4 2128.67 786.667 2166.67 786.667H2211.33V771.333C2211.33 756.933 2211.2 756 2208.67 756C2206.53 756 2206 756.933 2205.87 760.267C2205.87 767.6 2201.73 776.267 2196.8 779.6C2192.67 782.4 2190.8 782.667 2174 782.667C2160 782.667 2155.33 782.267 2154.13 780.8C2153.07 779.6 2152.67 771.467 2152.93 754.533L2153.33 730L2164.93 729.6L2176.67 729.2L2179.33 733.6C2180.8 736 2182.27 740.533 2182.8 743.6C2183.47 748 2184.27 749.333 2186.13 749.333C2188.53 749.333 2188.67 748 2188.67 725.333C2188.67 702.933 2188.53 701.333 2186.27 701.333C2184.27 701.333 2183.33 703.067 2182.13 708.667C2179.87 718.8 2176.4 721.333 2164.8 721.333C2159.6 721.333 2155.2 720.667 2154.27 719.733C2153.2 718.667 2152.67 712 2152.67 698.667C2152.67 685.333 2153.2 678.667 2154.27 677.6C2155.33 676.533 2161.07 676 2171.33 676C2184.27 676 2187.33 676.4 2190.93 678.667C2196 681.733 2202 690.267 2203.2 696.267C2203.87 699.733 2204.8 700.8 2207.73 701.067L2211.33 701.467V686.133V670.667H2166.67C2123.33 670.667 2122 670.8 2122 673.2Z" fill="#F6F5E8"/>
</svg>
