<svg width="1000" height="1000" viewBox="0 0 1000 1000" fill="none" xmlns="http://www.w3.org/2000/svg">
<path d="M442.244 443.351C399.429 370.509 425.933 273.386 439.185 240C409.824 259.425 393.312 291.596 390.255 303.737L378.022 337.123C363.343 337.123 355.595 318.912 353.556 309.807C351.11 321.947 364.77 339.146 371.906 343.193C362.731 379.614 322.974 396.813 301.566 403.895C289.333 416.035 329.09 434.246 316.857 446.386C289.333 464.596 298.508 473.702 307.683 482.807C277.1 485.842 292.391 506.076 304.623 513.158C282.604 532.582 279.138 547.556 280.157 552.614C280.157 572.039 353.555 589.035 396.371 604.211C464.445 628.339 460.594 717.52 448.361 759C516.866 739.575 527.876 655.807 524.817 616.351C518.701 537.439 485.06 504.053 442.244 443.351Z" fill="#F6F5E8"/>
<path d="M576.809 570.825C630.634 663.091 540.11 734.719 488.119 759C604.333 716.509 628.799 686.158 628.799 634.561C628.799 593.284 581.906 518.216 558.459 485.842C492.401 386.291 485.061 355.333 478.945 285.526C460.595 403.895 509.527 455.491 576.809 570.825Z" fill="#F6F5E8"/>
<path d="M622.683 507.088C570.692 461.561 579.867 405.918 589.042 382.649L598.217 419.07C603.11 406.93 604.333 383.661 604.333 373.544C610.45 376.579 662.44 406.93 641.032 449.421C625.252 480.742 620.644 500.006 622.683 507.088Z" fill="#F6F5E8"/>
<path d="M512.586 318.912C509.527 328.018 558.459 358.368 582.925 364.439L567.634 318.912L576.809 328.018L589.042 343.193C591.488 292.204 532.974 257.199 503.411 246.07C512.586 252.14 518.468 301.398 512.586 318.912Z" fill="#F6F5E8"/>
<path d="M610.45 279.456C610.45 285.526 607.391 301.309 595.158 315.877C582.925 294.025 579.867 282.491 579.867 279.456L595.158 255.175C600.052 262.46 607.391 274.398 610.45 279.456Z" fill="#F6F5E8"/>
<path d="M720.547 394.789C669.168 414.214 640.013 394.789 631.857 382.649H656.324C653.877 377.793 636.955 372.532 628.799 370.509C650.207 358.368 659.382 358.368 671.615 358.368C681.401 358.368 708.314 382.649 720.547 394.789Z" fill="#F6F5E8"/>
<path d="M680.79 315.877C680.79 345.014 629.819 356.345 604.333 358.368C601.887 355.94 617.586 331.053 625.741 318.912L598.217 343.193C604.333 291.597 670.595 255.175 696.081 252.14C680.79 270.351 680.79 279.456 680.79 315.877Z" fill="#F6F5E8"/>
</svg>
